<svg xmlns="http://www.w3.org/2000/svg" width="20" height="19" viewBox="0 0 20 19">
  <metadata><?xpacket begin="﻿" id="W5M0MpCehiHzreSzNTczkc9d"?>
<x:xmpmeta xmlns:x="adobe:ns:meta/" x:xmptk="Adobe XMP Core 5.6-c138 79.159824, 2016/09/14-01:09:01        ">
   <rdf:RDF xmlns:rdf="http://www.w3.org/1999/02/22-rdf-syntax-ns#">
      <rdf:Description rdf:about=""/>
   </rdf:RDF>
</x:xmpmeta>
                                                                                                    
                                                                                                    
                                                                                                    
                                                                                                    
                                                                                                    
                                                                                                    
                                                                                                    
                                                                                                    
                                                                                                    
                                                                                                    
                                                                                                    
                                                                                                    
                                                                                                    
                                                                                                    
                                                                                                    
                                                                                                    
                                                                                                    
                                                                                                    
                                                                                                    
                                                                                                    
                           
<?xpacket end="w"?></metadata>
<defs>
    <style>
      .cls-1 {
        fill: #7f7f7f;
        fill-rule: evenodd;
      }
    </style>
  </defs>
  <path class="cls-1" d="M1506,39h-3V37a1.993,1.993,0,0,0-2-2h-6a1.993,1.993,0,0,0-2,2v2h-3a1.993,1.993,0,0,0-2,2V52a1.993,1.993,0,0,0,2,2h16a1.993,1.993,0,0,0,2-2V41A1.993,1.993,0,0,0,1506,39Zm-11-2h6v2h-6V37Zm11,15h-16V50h16v2Zm0-5h-16V41h3v2h2V41h6v2h2V41h3v6Z" transform="translate(-1488 -35)"/>
</svg>
