<svg xmlns="http://www.w3.org/2000/svg" width="15" height="17" viewBox="0 0 15 17">
  <metadata><?xpacket begin="﻿" id="W5M0MpCehiHzreSzNTczkc9d"?>
<x:xmpmeta xmlns:x="adobe:ns:meta/" x:xmptk="Adobe XMP Core 5.6-c138 79.159824, 2016/09/14-01:09:01        ">
   <rdf:RDF xmlns:rdf="http://www.w3.org/1999/02/22-rdf-syntax-ns#">
      <rdf:Description rdf:about=""/>
   </rdf:RDF>
</x:xmpmeta>
                                                                                                    
                                                                                                    
                                                                                                    
                                                                                                    
                                                                                                    
                                                                                                    
                                                                                                    
                                                                                                    
                                                                                                    
                                                                                                    
                                                                                                    
                                                                                                    
                                                                                                    
                                                                                                    
                                                                                                    
                                                                                                    
                                                                                                    
                                                                                                    
                                                                                                    
                                                                                                    
                           
<?xpacket end="w"?></metadata>
<defs>
    <style>
      .cls-1 {
        fill: #161918;
        fill-rule: evenodd;
      }
    </style>
  </defs>
  <path class="cls-1" d="M1457.5,49.013a2.388,2.388,0,0,0-1.63.657l-5.95-3.541a2.269,2.269,0,0,0,0-1.194l5.88-3.506a2.454,2.454,0,0,0,1.7.691,2.56,2.56,0,1,0-2.5-2.559,2.964,2.964,0,0,0,.07.6l-5.87,3.507a2.455,2.455,0,0,0-1.7-.691,2.56,2.56,0,0,0,0,5.119,2.457,2.457,0,0,0,1.7-.691l5.93,3.548a2.56,2.56,0,0,0-.06.554A2.431,2.431,0,1,0,1457.5,49.013Z" transform="translate(-1445 -37)"/>
</svg>
